<?xml version="1.0" encoding="UTF-8" standalone="no"?>
<svg
   width="261"
   height="66"
   viewBox="0 0 261 66"
   fill="none"
   version="1.1"
   id="svg25"
   sodipodi:docname="logo-symbol-wordmark.svg"
   inkscape:label="logo-symbol-wordmark"
   inkscape:version="1.1.2 (0a00cf5339, 2022-02-04)"
   xmlns:inkscape="http://www.inkscape.org/namespaces/inkscape"
   xmlns:sodipodi="http://sodipodi.sourceforge.net/DTD/sodipodi-0.dtd"
   xmlns="http://www.w3.org/2000/svg"
   xmlns:svg="http://www.w3.org/2000/svg">
  <defs
     id="defs29">
    <rect
       x="2.7145772"
       y="2.3346007"
       width="254.91613"
       height="61.490873"
       id="rect51141" />
    <rect
       x="0.25735671"
       y="8.372064"
       width="153.4492"
       height="47.345033"
       id="rect41129" />
    <rect
       x="7.7336762"
       y="7.1070411"
       width="139.98236"
       height="44.615736"
       id="rect33159" />
  </defs>
  <sodipodi:namedview
     id="namedview27"
     pagecolor="#ffffff"
     bordercolor="#666666"
     borderopacity="1.0"
     inkscape:pageshadow="2"
     inkscape:pageopacity="0.0"
     inkscape:pagecheckerboard="0"
     showgrid="false"
     inkscape:zoom="3.3275862"
     inkscape:cx="123.81347"
     inkscape:cy="32.3057"
     inkscape:window-width="1920"
     inkscape:window-height="1000"
     inkscape:window-x="0"
     inkscape:window-y="0"
     inkscape:window-maximized="1"
     inkscape:current-layer="svg25" />
  <g
     aria-label="SaskJeeves"
     transform="matrix(1.2706235,0,0,1.2706235,-1.2867722,-2.2540205)"
     id="logo-symbol-wordmark"
     style="font-size:40px;line-height:1.25;white-space:pre;shape-inside:url(#rect51141);fill:#000000"
     inkscape:label="logo-symbol-wordmark">
    <path
       d="m 22.794844,31.088992 q 0,3.8 -2.76,5.92 -2.76,2.12 -7.44,2.12 -2.4,0 -4.4400002,-0.36 -2.04,-0.36 -3.4000001,-1 v -3.44 q 1.4400001,0.64 3.5600001,1.16 2.1600002,0.52 4.4400002,0.52 3.2,0 4.8,-1.24 1.64,-1.24 1.64,-3.36 0,-1.4 -0.6,-2.36 -0.6,-0.96 -2.08,-1.76 -1.44,-0.84 -4.04,-1.76 -3.6400002,-1.32 -5.5200003,-3.24 -1.8399999,-1.92 -1.8399999,-5.24 0,-2.28 1.1599999,-3.88 1.1600001,-1.64 3.2000001,-2.52 2.0800002,-0.8800003 4.7600002,-0.8800003 2.36,0 4.32,0.4400003 1.96,0.44 3.56,1.16 l -1.12,3.08 q -1.48,-0.64 -3.24,-1.08 -1.72,-0.44 -3.6,-0.44 -2.68,0 -4.04,1.16 -1.3600003,1.12 -1.3600003,3 0,1.44 0.6000001,2.4 0.6,0.96 1.9600002,1.72 1.36,0.76 3.68,1.64 2.52,0.92 4.24,2 1.76,1.04 2.64,2.52 0.92,1.48 0.92,3.72 z"
       id="path53675" />
    <path
       d="m 36.194835,16.928992 q 3.92,0 5.8,1.72 1.88,1.72 1.88,5.48 v 14.6 h -2.56 l -0.68,-3.04 h -0.16 q -1.4,1.76 -2.96,2.6 -1.52,0.84 -4.24,0.84 -2.92,0 -4.84,-1.52 -1.92,-1.56 -1.92,-4.84 0,-3.2 2.52,-4.92 2.52,-1.76 7.76,-1.92 l 3.64,-0.12 v -1.28 q 0,-2.68 -1.16,-3.72 -1.16,-1.04 -3.28,-1.04 -1.68,0 -3.2,0.52 -1.52,0.48 -2.84,1.12 l -1.08,-2.64 q 1.4,-0.76 3.32,-1.28 1.92,-0.56 4,-0.56 z m 1.04,11.44 q -4,0.16 -5.56,1.28 -1.52,1.12 -1.52,3.16 0,1.8 1.08,2.64 1.12,0.84 2.84,0.84 2.72,0 4.52,-1.48 1.8,-1.52 1.8,-4.64 v -1.92 z"
       id="path53677" />
    <path
       d="m 64.474792,32.808992 q 0,3.12 -2.32,4.72 -2.32,1.6 -6.24,1.6 -2.24,0 -3.88,-0.36 -1.6,-0.36 -2.84,-1 v -3.2 q 1.28,0.64 3.08,1.2 1.84,0.52 3.72,0.52 2.68,0 3.88,-0.84 1.2,-0.88 1.2,-2.32 0,-0.8 -0.44,-1.44 -0.44,-0.64 -1.6,-1.28 -1.12,-0.64 -3.24,-1.44 -2.08,-0.8 -3.56,-1.6 -1.48,-0.8 -2.28,-1.92 -0.8,-1.12 -0.8,-2.88 0,-2.72 2.2,-4.2 2.24,-1.48 5.84,-1.48 1.96,0 3.64,0.4 1.72,0.36 3.2,1.04 l -1.2,2.8 q -1.36,-0.56 -2.84,-0.96 -1.48,-0.4 -3.04,-0.4 -2.16,0 -3.32,0.72 -1.12,0.68 -1.12,1.88 0,0.88 0.52,1.52 0.52,0.6 1.72,1.2 1.24,0.56 3.28,1.36 2.04,0.76 3.48,1.56 1.44,0.8 2.2,1.96 0.76,1.12 0.76,2.84 z"
       id="path53679" />
    <path
       d="m 73.154719,24.208992 q 0,0.64 -0.08,1.68 -0.04,1.04 -0.08,1.8 h 0.16 q 0.24,-0.32 0.72,-0.92 0.48,-0.6 0.96,-1.2 0.52,-0.64 0.88,-1.04 l 6.84,-7.24 h 4.12 l -8.68,9.16 9.28,12.28 h -4.24 l -7.44,-10 -2.44,2.12 v 7.88 h -3.48 V 8.3289917 h 3.48 z"
       id="path53681" />
    <path
       d="m 87.474659,46.328992 q -0.96,0 -1.68,-0.16 -0.72,-0.12 -1.28,-0.36 v -3.04 q 0.64,0.16 1.36,0.28 0.72,0.12 1.52,0.12 1,0 1.88,-0.4 0.92,-0.4 1.48,-1.4 0.56,-1 0.56,-2.8 v -28.4 h 3.6 v 28.12 q 0,4.12 -2.04,6.08 -2.04,1.96 -5.4,1.96 z"
       id="path53683" />
    <path
       d="m 110.23461,16.888992 q 2.76,0 4.72,1.2 2,1.2 3.04,3.4 1.08,2.16 1.08,5.08 v 2.12 h -14.68 q 0.08,3.64 1.84,5.56 1.8,1.88 5,1.88 2.04,0 3.6,-0.36 1.6,-0.4 3.28,-1.12 v 3.08 q -1.64,0.72 -3.24,1.04 -1.6,0.36 -3.8,0.36 -3.04,0 -5.4,-1.24 -2.32,-1.24 -3.64,-3.68 -1.28,-2.48 -1.28,-6.04 0,-3.52 1.16,-6.04 1.2,-2.52 3.32,-3.88 2.16,-1.36 5,-1.36 z m -0.04,2.88 q -2.52,0 -4,1.64 -1.44,1.6 -1.72,4.48 h 10.92 q -0.04,-2.72 -1.28,-4.4 -1.24,-1.72 -3.92,-1.72 z"
       id="path53685" />
    <path
       d="m 132.79458,16.888992 q 2.76,0 4.72,1.2 2,1.2 3.04,3.4 1.08,2.16 1.08,5.08 v 2.12 h -14.68 q 0.08,3.64 1.84,5.56 1.8,1.88 5,1.88 2.04,0 3.6,-0.36 1.6,-0.4 3.28,-1.12 v 3.08 q -1.64,0.72 -3.24,1.04 -1.6,0.36 -3.8,0.36 -3.04,0 -5.4,-1.24 -2.32,-1.24 -3.64,-3.68 -1.28,-2.48 -1.28,-6.04 0,-3.52 1.16,-6.04 1.2,-2.52 3.32,-3.88 2.16,-1.36 5,-1.36 z m -0.04,2.88 q -2.52,0 -4,1.64 -1.44,1.6 -1.72,4.48 h 10.92 q -0.04,-2.72 -1.28,-4.4 -1.24,-1.72 -3.92,-1.72 z"
       id="path53687" />
    <path
       d="m 150.99453,38.728992 -8.12,-21.44 h 3.76 l 4.56,12.64 q 0.32,0.88 0.68,1.96 0.36,1.08 0.64,2.08 0.28,0.96 0.4,1.64 h 0.16 q 0.16,-0.68 0.44,-1.68 0.32,-1 0.68,-2.08 0.4,-1.08 0.68,-1.92 l 4.56,-12.64 h 3.76 l -8.16,21.44 z"
       id="path53689" />
    <path
       d="m 174.8745,16.888992 q 2.76,0 4.72,1.2 2,1.2 3.04,3.4 1.08,2.16 1.08,5.08 v 2.12 h -14.68 q 0.08,3.64 1.84,5.56 1.8,1.88 5,1.88 2.04,0 3.6,-0.36 1.6,-0.4 3.28,-1.12 v 3.08 q -1.64,0.72 -3.24,1.04 -1.6,0.36 -3.8,0.36 -3.04,0 -5.4,-1.24 -2.32,-1.24 -3.64,-3.68 -1.28,-2.48 -1.28,-6.04 0,-3.52 1.16,-6.04 1.2,-2.52 3.32,-3.88 2.16,-1.36 5,-1.36 z m -0.04,2.88 q -2.52,0 -4,1.64 -1.44,1.6 -1.72,4.48 h 10.92 q -0.04,-2.72 -1.28,-4.4 -1.24,-1.72 -3.92,-1.72 z"
       id="path53691" />
    <path
       d="m 203.11447,32.808992 q 0,3.12 -2.32,4.72 -2.32,1.6 -6.24,1.6 -2.24,0 -3.88,-0.36 -1.6,-0.36 -2.84,-1 v -3.2 q 1.28,0.64 3.08,1.2 1.84,0.52 3.72,0.52 2.68,0 3.88,-0.84 1.2,-0.88 1.2,-2.32 0,-0.8 -0.44,-1.44 -0.44,-0.64 -1.6,-1.28 -1.12,-0.64 -3.24,-1.44 -2.08,-0.8 -3.56,-1.6 -1.48,-0.8 -2.28,-1.92 -0.8,-1.12 -0.8,-2.88 0,-2.72 2.2,-4.2 2.24,-1.48 5.84,-1.48 1.96,0 3.64,0.4 1.72,0.36 3.2,1.04 l -1.2,2.8 q -1.36,-0.56 -2.84,-0.96 -1.48,-0.4 -3.04,-0.4 -2.16,0 -3.32,0.72 -1.12,0.68 -1.12,1.88 0,0.88 0.52,1.52 0.52,0.6 1.72,1.2 1.24,0.56 3.28,1.36 2.04,0.76 3.48,1.56 1.44,0.8 2.2,1.96 0.76,1.12 0.76,2.84 z"
       id="path53693" />
  </g>
</svg>
