<?xml version="1.0" encoding="UTF-8" standalone="no"?>
<svg
   width="261"
   height="66"
   viewBox="0 0 261 66"
   fill="none"
   version="1.1"
   id="svg1460"
   sodipodi:docname="logo-symbol-wordmark.svg"
   inkscape:version="1.1.2 (0a00cf5339, 2022-02-04)"
   xmlns:inkscape="http://www.inkscape.org/namespaces/inkscape"
   xmlns:sodipodi="http://sodipodi.sourceforge.net/DTD/sodipodi-0.dtd"
   xmlns="http://www.w3.org/2000/svg"
   xmlns:svg="http://www.w3.org/2000/svg">
  <defs
     id="defs1464">
    <rect
       x="1.8196076"
       y="1.8387339"
       width="258.23004"
       height="62.638355"
       id="rect113871" />
    <rect
       x="3.5796444"
       y="1.1909572"
       width="253.281"
       height="59.980817"
       id="rect9983" />
  </defs>
  <sodipodi:namedview
     id="namedview1462"
     pagecolor="#ffffff"
     bordercolor="#666666"
     borderopacity="1.0"
     inkscape:pageshadow="2"
     inkscape:pageopacity="0.0"
     inkscape:pagecheckerboard="0"
     showgrid="false"
     inkscape:zoom="3.3275862"
     inkscape:cx="117.95337"
     inkscape:cy="7.6632124"
     inkscape:window-width="1920"
     inkscape:window-height="1000"
     inkscape:window-x="0"
     inkscape:window-y="0"
     inkscape:window-maximized="1"
     inkscape:current-layer="svg1460" />
  <g
     aria-label="SaskJeeves"
     transform="matrix(1.2823446,0,0,1.2823446,-1.0899383,-2.2115763)"
     id="text113869"
     mask="none"
     style="font-size:40px;line-height:1.25;white-space:pre;shape-inside:url(#rect113871);display:inline;fill:#000000">
    <path
       d="m 21.900312,30.592898 q 0,3.8 -2.76,5.92 -2.76,2.12 -7.44,2.12 -2.3999995,0 -4.4399995,-0.36 -2.04,-0.36 -3.4,-1 v -3.44 q 1.44,0.64 3.56,1.16 2.16,0.52 4.4399995,0.52 3.200001,0 4.8,-1.24 1.64,-1.24 1.64,-3.36 0,-1.4 -0.599999,-2.36 -0.600001,-0.96 -2.08,-1.76 -1.440001,-0.84 -4.04,-1.76 -3.6400005,-1.32 -5.5200005,-3.24 -1.84,-1.92 -1.84,-5.24 0,-2.28 1.16,-3.88 1.16,-1.64 3.2,-2.52 2.0800005,-0.88 4.7600005,-0.88 2.36,0 4.319999,0.44 1.96,0.44 3.56,1.16 l -1.12,3.08 q -1.48,-0.64 -3.24,-1.08 -1.719999,-0.44 -3.599999,-0.44 -2.68,0 -4.0400005,1.16 -1.36,1.12 -1.36,3 0,1.44 0.6,2.4 0.6,0.96 1.9600005,1.72 1.36,0.76 3.679999,1.64 2.52,0.92 4.240001,2 1.759999,1.04 2.639999,2.52 0.92,1.48 0.92,3.72 z"
       id="path123621" />
    <path
       d="m 35.300304,16.432898 q 3.92,0 5.8,1.72 1.88,1.72 1.88,5.48 v 14.6 h -2.56 l -0.68,-3.04 h -0.16 q -1.4,1.76 -2.96,2.6 -1.52,0.84 -4.24,0.84 -2.92,0 -4.84,-1.52 -1.92,-1.56 -1.92,-4.84 0,-3.2 2.52,-4.92 2.52,-1.76 7.76,-1.92 l 3.64,-0.12 v -1.28 q 0,-2.68 -1.16,-3.72 -1.16,-1.04 -3.28,-1.04 -1.68,0 -3.2,0.52 -1.52,0.48 -2.84,1.12 l -1.08,-2.64 q 1.4,-0.76 3.32,-1.28 1.92,-0.56 4,-0.56 z m 1.04,11.44 q -4,0.16 -5.56,1.28 -1.52,1.12 -1.52,3.16 0,1.8 1.08,2.64 1.12,0.84 2.84,0.84 2.72,0 4.52,-1.48 1.8,-1.52 1.8,-4.64 v -1.92 z"
       id="path123623" />
    <path
       d="m 63.580261,32.312898 q 0,3.12 -2.32,4.72 -2.32,1.6 -6.24,1.6 -2.24,0 -3.88,-0.36 -1.6,-0.36 -2.84,-1 v -3.2 q 1.28,0.64 3.08,1.2 1.84,0.52 3.72,0.52 2.68,0 3.88,-0.84 1.2,-0.88 1.2,-2.32 0,-0.8 -0.44,-1.44 -0.44,-0.64 -1.6,-1.28 -1.12,-0.64 -3.24,-1.44 -2.08,-0.8 -3.56,-1.6 -1.48,-0.8 -2.28,-1.92 -0.8,-1.12 -0.8,-2.88 0,-2.72 2.2,-4.2 2.24,-1.48 5.84,-1.48 1.96,0 3.64,0.4 1.72,0.36 3.2,1.04 l -1.2,2.8 q -1.36,-0.56 -2.84,-0.96 -1.48,-0.4 -3.04,-0.4 -2.16,0 -3.32,0.72 -1.12,0.68 -1.12,1.88 0,0.88 0.52,1.52 0.52,0.6 1.72,1.2 1.24,0.56 3.28,1.36 2.04,0.76 3.48,1.56 1.44,0.8 2.2,1.96 0.76,1.12 0.76,2.84 z"
       id="path123625" />
    <path
       d="m 72.260188,23.712898 q 0,0.64 -0.08,1.68 -0.04,1.04 -0.08,1.8 h 0.16 q 0.24,-0.32 0.72,-0.92 0.48,-0.6 0.96,-1.2 0.52,-0.64 0.88,-1.04 l 6.84,-7.24 h 4.12 l -8.68,9.16 9.28,12.28 h -4.24 l -7.44,-10 -2.44,2.12 v 7.88 h -3.48 v -30.4 h 3.48 z"
       id="path123627" />
    <path
       d="m 86.580128,45.832898 q -0.96,0 -1.68,-0.16 -0.72,-0.12 -1.28,-0.36 v -3.04 q 0.64,0.16 1.36,0.28 0.72,0.12 1.52,0.12 1,0 1.88,-0.4 0.92,-0.4 1.48,-1.4 0.56,-1 0.56,-2.8 v -28.4 h 3.6 v 28.12 q 0,4.12 -2.04,6.08 -2.04,1.96 -5.4,1.96 z"
       id="path123629" />
    <path
       d="m 109.34008,16.392898 q 2.76,0 4.72,1.2 2,1.2 3.04,3.4 1.08,2.16 1.08,5.08 v 2.12 h -14.68 q 0.08,3.64 1.84,5.56 1.8,1.88 5,1.88 2.04,0 3.6,-0.36 1.6,-0.4 3.28,-1.12 v 3.08 q -1.64,0.72 -3.24,1.04 -1.6,0.36 -3.8,0.36 -3.04,0 -5.4,-1.24 -2.32,-1.24 -3.64,-3.68 -1.28,-2.48 -1.28,-6.04 0,-3.52 1.16,-6.04 1.2,-2.52 3.32,-3.88 2.16,-1.36 5,-1.36 z m -0.04,2.88 q -2.52,0 -4,1.64 -1.44,1.6 -1.72,4.48 h 10.92 q -0.04,-2.72 -1.28,-4.4 -1.24,-1.72 -3.92,-1.72 z"
       id="path123631" />
    <path
       d="m 131.90005,16.392898 q 2.76,0 4.72,1.2 2,1.2 3.04,3.4 1.08,2.16 1.08,5.08 v 2.12 h -14.68 q 0.08,3.64 1.84,5.56 1.8,1.88 5,1.88 2.04,0 3.6,-0.36 1.6,-0.4 3.28,-1.12 v 3.08 q -1.64,0.72 -3.24,1.04 -1.6,0.36 -3.8,0.36 -3.04,0 -5.4,-1.24 -2.32,-1.24 -3.64,-3.68 -1.28,-2.48 -1.28,-6.04 0,-3.52 1.16,-6.04 1.2,-2.52 3.32,-3.88 2.16,-1.36 5,-1.36 z m -0.04,2.88 q -2.52,0 -4,1.64 -1.44,1.6 -1.72,4.48 h 10.92 q -0.04,-2.72 -1.28,-4.4 -1.24,-1.72 -3.92,-1.72 z"
       id="path123633" />
    <path
       d="m 150.1,38.232898 -8.12,-21.44 h 3.76 l 4.56,12.64 q 0.32,0.88 0.68,1.96 0.36,1.08 0.64,2.08 0.28,0.96 0.4,1.64 h 0.16 q 0.16,-0.68 0.44,-1.68 0.32,-1 0.68,-2.08 0.4,-1.08 0.68,-1.92 l 4.56,-12.64 h 3.76 l -8.16,21.44 z"
       id="path123635" />
    <path
       d="m 173.97997,16.392898 q 2.76,0 4.72,1.2 2,1.2 3.04,3.4 1.08,2.16 1.08,5.08 v 2.12 h -14.68 q 0.08,3.64 1.84,5.56 1.8,1.88 5,1.88 2.04,0 3.6,-0.36 1.6,-0.4 3.28,-1.12 v 3.08 q -1.64,0.72 -3.24,1.04 -1.6,0.36 -3.8,0.36 -3.04,0 -5.4,-1.24 -2.32,-1.24 -3.64,-3.68 -1.28,-2.48 -1.28,-6.04 0,-3.52 1.16,-6.04 1.2,-2.52 3.32,-3.88 2.16,-1.36 5,-1.36 z m -0.04,2.88 q -2.52,0 -4,1.64 -1.44,1.6 -1.72,4.48 h 10.92 q -0.04,-2.72 -1.28,-4.4 -1.24,-1.72 -3.92,-1.72 z"
       id="path123637" />
    <path
       d="m 202.21994,32.312898 q 0,3.12 -2.32,4.72 -2.32,1.6 -6.24,1.6 -2.24,0 -3.88,-0.36 -1.6,-0.36 -2.84,-1 v -3.2 q 1.28,0.64 3.08,1.2 1.84,0.52 3.72,0.52 2.68,0 3.88,-0.84 1.2,-0.88 1.2,-2.32 0,-0.8 -0.44,-1.44 -0.44,-0.64 -1.6,-1.28 -1.12,-0.64 -3.24,-1.44 -2.08,-0.8 -3.56,-1.6 -1.48,-0.8 -2.28,-1.92 -0.8,-1.12 -0.8,-2.88 0,-2.72 2.2,-4.2 2.24,-1.48 5.84,-1.48 1.96,0 3.64,0.4 1.72,0.36 3.2,1.04 l -1.2,2.8 q -1.36,-0.56 -2.84,-0.96 -1.48,-0.4 -3.04,-0.4 -2.16,0 -3.32,0.72 -1.12,0.68 -1.12,1.88 0,0.88 0.52,1.52 0.52,0.6 1.72,1.2 1.24,0.56 3.28,1.36 2.04,0.76 3.48,1.56 1.44,0.8 2.2,1.96 0.76,1.12 0.76,2.84 z"
       id="path123639" />
  </g>
</svg>
